<svg id="visual" viewBox="0 0 900 600" width="900" height="600" xmlns="http://www.w3.org/2000/svg" xmlns:xlink="http://www.w3.org/1999/xlink" version="1.1"><rect x="0" y="0" width="900" height="600" fill="#001220"></rect><defs><linearGradient id="grad1_0" x1="33.3%" y1="100%" x2="100%" y2="0%"><stop offset="20%" stop-color="#ad08a2" stop-opacity="1"></stop><stop offset="80%" stop-color="#ad08a2" stop-opacity="1"></stop></linearGradient></defs><defs><linearGradient id="grad1_1" x1="33.3%" y1="100%" x2="100%" y2="0%"><stop offset="20%" stop-color="#ad08a2" stop-opacity="1"></stop><stop offset="80%" stop-color="#51308b" stop-opacity="1"></stop></linearGradient></defs><defs><linearGradient id="grad1_2" x1="33.3%" y1="100%" x2="100%" y2="0%"><stop offset="20%" stop-color="#01285a" stop-opacity="1"></stop><stop offset="80%" stop-color="#51308b" stop-opacity="1"></stop></linearGradient></defs><defs><linearGradient id="grad1_3" x1="33.3%" y1="100%" x2="100%" y2="0%"><stop offset="20%" stop-color="#01285a" stop-opacity="1"></stop><stop offset="80%" stop-color="#001220" stop-opacity="1"></stop></linearGradient></defs><defs><linearGradient id="grad2_0" x1="0%" y1="100%" x2="66.7%" y2="0%"><stop offset="20%" stop-color="#ad08a2" stop-opacity="1"></stop><stop offset="80%" stop-color="#ad08a2" stop-opacity="1"></stop></linearGradient></defs><defs><linearGradient id="grad2_1" x1="0%" y1="100%" x2="66.7%" y2="0%"><stop offset="20%" stop-color="#51308b" stop-opacity="1"></stop><stop offset="80%" stop-color="#ad08a2" stop-opacity="1"></stop></linearGradient></defs><defs><linearGradient id="grad2_2" x1="0%" y1="100%" x2="66.7%" y2="0%"><stop offset="20%" stop-color="#51308b" stop-opacity="1"></stop><stop offset="80%" stop-color="#01285a" stop-opacity="1"></stop></linearGradient></defs><defs><linearGradient id="grad2_3" x1="0%" y1="100%" x2="66.7%" y2="0%"><stop offset="20%" stop-color="#001220" stop-opacity="1"></stop><stop offset="80%" stop-color="#01285a" stop-opacity="1"></stop></linearGradient></defs><g transform="translate(900, 600)"><path d="M-405.6 0C-399.5 -51.7 -393.4 -103.4 -374.7 -155.2C-356.1 -207.1 -325 -259 -280 -280C-235 -301 -176 -291 -127.1 -306.7C-78.1 -322.5 -39 -364.1 0 -405.6L0 0Z" fill="#001e3d"></path><path d="M-304.2 0C-299.6 -38.8 -295 -77.5 -281.1 -116.4C-267.1 -155.3 -243.8 -194.3 -210 -210C-176.2 -225.7 -132 -218.2 -95.3 -230C-58.5 -241.9 -29.3 -273 0 -304.2L0 0Z" fill="#282f75"></path><path d="M-202.8 0C-199.7 -25.8 -196.7 -51.7 -187.4 -77.6C-178.1 -103.5 -162.5 -129.5 -140 -140C-117.5 -150.5 -88 -145.5 -63.5 -153.4C-39 -161.2 -19.5 -182 0 -202.8L0 0Z" fill="#7e299b"></path><path d="M-101.4 0C-99.9 -12.9 -98.3 -25.8 -93.7 -38.8C-89 -51.8 -81.3 -64.8 -70 -70C-58.7 -75.2 -44 -72.7 -31.8 -76.7C-19.5 -80.6 -9.8 -91 0 -101.4L0 0Z" fill="#ad08a2"></path></g><g transform="translate(0, 0)"><path d="M405.6 0C403.6 55.9 401.7 111.7 374.7 155.2C347.8 198.7 296 229.8 251 251C206.1 272.2 168.1 283.5 127.4 307.7C86.8 331.8 43.4 368.7 0 405.6L0 0Z" fill="#001e3d"></path><path d="M304.2 0C302.7 41.9 301.3 83.8 281.1 116.4C260.9 149 222 172.4 188.3 188.3C154.6 204.2 126.1 212.7 95.6 230.7C65.1 248.8 32.5 276.5 0 304.2L0 0Z" fill="#282f75"></path><path d="M202.8 0C201.8 27.9 200.8 55.9 187.4 77.6C173.9 99.4 148 114.9 125.5 125.5C103 136.1 84.1 141.8 63.7 153.8C43.4 165.9 21.7 184.3 0 202.8L0 0Z" fill="#7e299b"></path><path d="M101.4 0C100.9 14 100.4 27.9 93.7 38.8C87 49.7 74 57.5 62.8 62.8C51.5 68.1 42 70.9 31.9 76.9C21.7 82.9 10.8 92.2 0 101.4L0 0Z" fill="#ad08a2"></path></g></svg>